
<svg xmlns="http://www.w3.org/2000/svg" viewBox="0 0 64 64" fill="none">
  <defs>
    <linearGradient id="udg" x1="0" y1="0" x2="64" y2="64" gradientUnits="userSpaceOnUse">
      <stop offset="0%" stop-color="#d6336c"></stop>
      <stop offset="100%" stop-color="#8b5cf6"></stop>
    </linearGradient>
  </defs>
  
  <rect width="64" height="64" rx="18" fill="url(#udg)"></rect>

  
  <circle cx="32" cy="14.5" r="2.4" fill="#fff"></circle>

  
  <path d="M 32 17&#xA;           L 52 22.5&#xA;           L 32 28&#xA;           L 12 22.5 Z" fill="#fff"></path>

  
  <path d="M 32 54&#xA;           C 30.3 54, 29 53.2, 27.7 52&#xA;           C 22.5 47, 14.5 40, 14.5 32&#xA;           C 14.5 27.5, 18 24.5, 22 24.5&#xA;           C 25.4 24.5, 28.8 26.5, 32 29.5&#xA;           C 35.2 26.5, 38.6 24.5, 42 24.5&#xA;           C 46 24.5, 49.5 27.5, 49.5 32&#xA;           C 49.5 40, 41.5 47, 36.3 52&#xA;           C 35 53.2, 33.7 54, 32 54 Z" fill="#fff"></path>
</svg>